<?xml version="1.0" encoding="utf-8"?>
<!-- Generator: Adobe Illustrator 23.0.0, SVG Export Plug-In . SVG Version: 6.00 Build 0)  -->
<svg version="1.1" xmlns="http://www.w3.org/2000/svg" xmlns:xlink="http://www.w3.org/1999/xlink" x="0px" y="0px"
	 viewBox="0 0 1024 1024" style="enable-background:new 0 0 1024 1024;" xml:space="preserve">
<style type="text/css">
	.st0{fill:#FDCB29;}
	.st1{fill:#4A4A4C;}
</style>
<g id="Camada_1">
	<g>
		<g>
			<path class="st0" d="M487.3,116c-1.43,1.84,0.57,1.8,1.29,2.03c8.58,2.72,15.57,7.96,22.19,13.79
				c42.15,37.11,88.2,68.37,139.93,90.46c44.3,18.91,88.59,19.61,131.76-4.39c0.66-0.36,1.37-0.61,2.48-1.1
				c-0.35,5.68-2.58,10.46-4.32,15.32c-18.13,50.72-48.12,93.91-85.6,131.97c-65.52,66.54-142.81,113.54-233.36,137.8
				c-31.84,8.53-64.3,12.45-97.32,11.13c-1.75-0.07-3.51-0.19-5.26-0.33c-0.33-0.03-0.65-0.26-0.99-0.41
				c0.1-0.37,0.11-0.97,0.29-1.03c47.93-15.91,76.22-50.03,90.39-97.31c8.58-28.64,11.82-58.07,12.66-87.77
				c1.63-57.39-0.29-114.79,0-172.19c0.03-5.26-0.12-10.51,0.88-15.75c1.66-8.72,4.29-16.69,13.31-20.61c0.3-0.13,0.6-0.58,0.64-0.9
				c0.02-0.21-0.44-0.47-0.69-0.71C479.49,116,483.4,116,487.3,116z"/>
			<path class="st0" d="M238.9,463.95c68.53-15.56,135.28-35.8,202.46-59.98c-17.32,43.91-38.9,82.03-86.63,96.62
				c-15.33,4.68-30.87,3.34-46.27-0.42C287.84,495.14,254.48,477.88,238.9,463.95z"/>
			<path class="st0" d="M702.71,227.41c-4.41-0.55-9.8,1.48-11.6-1.57c-1.48-2.5,3.18-5.96,5.17-8.93
				c16.48-24.59,31.92-49.83,46.82-75.4c2.32-3.98,4.06-3.96,7.5-1.77c20.86,13.3,31.07,33.13,35.24,56.74
				c0.71,4.04-0.95,7.19-3.97,9.79c-4.05,3.48-8.76,5.83-13.65,7.74C746.97,222.28,724.81,226.12,702.71,227.41z"/>
		</g>
		<g>
			<path class="st1" d="M853,711.17c-7.96,2.02-15.24,6.11-23.55,7.19c-10.79,1.4-20.11,0.03-25.29-11.06
				c-1.33-2.85-3.05-1.48-4.72-0.57c-9.23,5.06-18.51,9.98-29.07,11.73c-10.53,1.75-20.93,1.63-31.01-2.33
				c-10.55-4.15-16.09-12.29-17.1-23.29c-1.04-11.3,1.11-21.75,11.21-28.76c9.96-6.91,21.61-8.28,33.25-9.1
				c9.66-0.68,19.37-0.85,29.06-0.96c3.42-0.04,5.07-0.8,4.81-4.61c-0.46-6.76,0.63-13.6-0.59-20.32
				c-1.54-8.48-6.27-12.5-14.88-13.17c-13.5-1.04-26.3,2.39-39.04,6.11c-6.74,1.97-8.55,0.97-10.29-5.97
				c-0.44-1.76-0.04-2.79,1.65-3.37c20.73-7.12,41.73-13.36,63.97-10.84c18.27,2.07,26.02,11.37,26.15,29.82
				c0.13,18.27,0.05,36.54,0.04,54.81c0,3.73,0.15,7.44,1.3,11.03c1.78,5.57,4.93,7.88,10.72,7.87c4.56-0.01,8.98-0.97,13.39-1.99
				C853,705.99,853,708.58,853,711.17z M770.51,704.56c8.75,0.24,18.05-2.27,27.1-5.96c1.99-0.81,3.97-1.59,3.63-4.37
				c-1.14-9.33-0.51-18.71-0.7-28.07c-0.04-2.07-0.51-3.48-2.95-3.39c-13.54,0.5-27.14,0.64-40.17,5.1
				c-3.63,1.24-5.95,3.81-6.97,7.48c-1.67,6.02-2,12.1-0.31,18.17c2.08,7.51,6.15,10.7,13.91,11.02
				C765.83,704.63,767.61,704.56,770.51,704.56z"/>
			<path class="st1" d="M853,838.34c-3.71,0.06-7.43-0.04-11.12,0.21c-3.49,0.24-4.41-1.29-4.38-4.55
				c0.13-12.12,0.11-24.25,0.02-36.37c-0.06-8.46-4.7-12.33-13.1-11.22c-5,0.66-9.74,2.17-14.49,3.83c-2.96,1.04-3.8,2.76-3.76,5.79
				c0.16,12.61-0.03,25.22,0.14,37.83c0.05,3.6-1.12,4.82-4.74,4.72c-11.36-0.3-9.5,1.17-9.61-9.45
				c-0.11-10.51,0.03-21.02-0.05-31.52c-0.07-8.44-4.68-12.3-13.12-11.18c-17.43,2.31-18.15,3.12-18.15,20.31
				c0,9.05-0.09,18.11,0.04,27.16c0.04,3.13-0.64,4.77-4.26,4.68c-12.17-0.29-9.97,1.26-10.07-9.94
				c-0.13-14.71-0.05-29.42-0.01-44.13c0-2.16-0.6-5.17,2.89-4.91c3.33,0.25,7.95-2.42,9.62,2.64c1.24,3.78,2.69,3.76,5.88,2.23
				c8.65-4.15,17.52-7.6,27.49-5.5c4.09,0.86,7.82,2.44,10.28,5.86c1.71,2.38,3.27,1.89,5.33,0.82c5.9-3.06,11.99-5.57,18.61-6.73
				c12.91-2.25,19.36,1.03,25.01,12.96c0.31,0.66,0.84,0.92,1.55,0.83C853,807.92,853,823.13,853,838.34z"/>
			<path class="st1" d="M600.6,880.08c-0.03-2.39-2.23-2.03-3.53-2.58c-4.68-1.98-8.03-4.92-8.13-10.36
				c-0.11-5.85,3.18-10.01,7.21-13.7c0.91-0.84,2.18-0.77,3.2-0.15c1.08,0.66,0.46,1.71,0.27,2.63
				c-2.29,11.58,1.46,16.25,13.29,16.53c6.33,0.15,12.64-0.08,18.71-2.07c2.13-0.7,4.29-1.57,6.13-2.81
				c4.2-2.83,6.15-8.84,4.55-13.88c-1.51-4.75-5.76-5.33-9.81-5.61c-8.22-0.56-16.5,0.27-24.71-0.96c-1.44-0.22-2.89-0.33-4.3-0.67
				c-4.35-1.05-8.44-2.49-9.91-7.44c-1.49-5.04,1.57-8.25,4.55-11.51c0.55-0.6,1.08-1.24,1.73-1.69c2.76-1.91,2.02-3.03-0.44-4.81
				c-14.1-10.23-12.4-30.93,3.04-38.97c4.54-2.36,9.4-3.45,14.45-3.71c3.22-0.17,6.48-0.24,9.66,0.53
				c8.34,2.02,16.69,1.15,25.07,0.28c1.12-0.12,3.2-1.71,3.51,0.73c0.21,1.63-0.32,3.59-2.08,4.63c-0.4,0.24-0.92,0.28-1.38,0.42
				c-2.89,0.87-7.14-0.31-8.49,1.95c-0.99,1.66,1.55,5.24,2.11,8.05c3.22,16.42-6.6,28.6-24.01,29.78c-3.54,0.24-7.15,0.36-10.67,0
				c-4.89-0.5-5.05,3.02-5.69,6.11c-0.69,3.35,1.55,4.78,4.3,5.3c2.36,0.44,4.82,0.43,7.24,0.49c7.92,0.18,15.83-0.24,23.74,0.76
				c14.2,1.79,19.6,13.55,11.43,25.4c-5.42,7.87-13.51,11.75-22.26,14.7c-1.59,0.53-4.17-0.14-4.54,2.64
				C616.78,880.08,608.69,880.08,600.6,880.08z M603.21,798.6c-0.1,1.12-0.31,2.25-0.29,3.37c0.14,9.81,6.43,16.88,14.97,16.89
				c11.2,0.01,14.82-4.04,14.81-16.54c0-0.81,0.01-1.61-0.03-2.42c-0.48-9.1-6.23-14.92-14.94-15.1
				C606.86,784.56,604.24,787.06,603.21,798.6z"/>
			<path class="st1" d="M352.85,677.03c0-8.77,0.29-17.61-0.05-26.42c-1.09-27.82-0.47-55.64-0.66-83.46
				c-0.04-5.18,0.13-10.36-0.05-15.53c-0.11-3.05,0.82-4.24,4.08-4.35c14.4-0.48,14.4-0.58,14.4,13.89
				c0,49.67,0.03,99.34-0.07,149.01c-0.01,2.53,1.64,6.7-1.37,7.36c-4.29,0.95-9.35,2.23-13.38-1.41
				c-7.56-6.83-15.05-13.74-22.56-20.62C294.17,659.74,255.19,624,216.2,588.27c-0.68-0.62-1.46-1.12-2.74-2.08
				c0,10.6-0.43,20.55,0.1,30.45c0.86,16.17,0.6,32.34,0.79,48.51c0.18,15.69-0.06,31.39,0.11,47.08c0.04,3.81-1.12,5.32-4.97,4.98
				c-2.89-0.26-5.84-0.28-8.73,0c-4,0.39-4.88-1.41-4.87-5.07c0.09-53.71,0.1-107.43-0.01-161.14c-0.01-3.84,1.19-4.81,4.96-5.01
				c5.46-0.29,9.31,1.61,13.29,5.28c45.24,41.6,90.66,83.01,136.04,124.46C350.83,676.33,351.34,677.33,352.85,677.03z"/>
			<path class="st1" d="M477.6,601.42c12.31-0.23,23.45,1.34,34.13,5.54c14.56,5.73,24.63,15.83,29.38,30.84
				c4.67,14.75,4.72,29.66,0.05,44.38c-5.9,18.63-19.41,29.38-37.79,34.19c-18.03,4.73-36.2,4.44-54.08-0.92
				c-21.68-6.49-35.29-23.59-36.91-46.13c-0.59-8.22-0.65-16.47,1.17-24.62c4.77-21.43,18.43-34.23,39.04-40.2
				C461.02,602.07,469.69,601.1,477.6,601.42z M440.42,661.33c-0.44,3.82,0.52,9.11,1.11,14.39c1.89,16.69,9.66,26.49,23.89,29.93
				c10.08,2.44,20.19,1.92,30.15-1.01c10.07-2.97,16.28-9.45,18.16-19.93c2.32-12.96,3.23-25.99,1.16-39.03
				c-2.16-13.57-7.17-25.31-21.88-29.74c-8.53-2.57-17.18-2.19-25.91-1.11c-13.29,1.64-21.46,8.52-24.19,21.9
				C441.35,644.36,440.53,652.02,440.42,661.33z"/>
			<path class="st1" d="M640.58,699.76c19.08-25.37,34.1-51.37,32.95-83.76c-0.01-0.32-0.08-0.66-0.02-0.97
				c0.61-3.13-2.83-6.84-0.03-9.11c2.11-1.71,5.83-1.46,8.84-2.05c2.06-0.4,4.13-0.74,6.2-1.13c6.94-1.32,7.47-0.9,8.2,6.38
				c1.66,16.42-3.48,31.32-10.4,45.75c-10.56,22.03-25.34,41.29-40.3,60.41c-1.27,1.63-2.85,1.89-4.7,1.88
				c-5.5-0.03-11.01-0.23-16.49,0.07c-3.63,0.2-5.01-1.39-6.16-4.56c-9.4-25.85-20.01-51.19-32.69-75.63
				c-2.98-5.75-6.12-11.41-9.91-16.66c-3.41-4.74-7.43-8.63-13.9-8.31c-2.18,0.11-3.31-0.74-3.25-3.09c0.05-2.02-0.02-3.94,2.6-4.44
				c9.41-1.79,18.83-3.28,28.35-0.89c5.56,1.4,9.06,5.39,12.01,9.98c7.99,12.43,13.98,25.87,19.86,39.36
				c6.07,13.93,11.71,28.04,16.86,42.34C639.03,696.53,639.63,697.66,640.58,699.76z"/>
			<path class="st1" d="M192.94,794.59c0-13.1,0-26.19,0-39.29c0-2.1-0.31-4.25,2.91-4.44c18.84-1.15,37.75-3.63,56.41,1.24
				c16.32,4.25,27.72,13.85,30.65,31.23c4.68,27.86-12.59,50.88-41.04,54.99c-15.31,2.21-30.64,0.79-45.96,0
				c-3.18-0.17-2.97-2.29-2.97-4.43C192.94,820.78,192.94,807.68,192.94,794.59z M207.44,794.61c0,10.84,0.14,21.68-0.08,32.51
				c-0.07,3.78,0.81,5.27,4.95,5.64c8.43,0.75,16.77,0.53,25.16-0.23c17.96-1.62,26.69-9.23,29.84-26.31
				c0.47-2.54,0.68-5.13,0.97-7.7c2.31-20.01-6.88-35-24.84-40.22c-10.41-3.02-21.05-2.9-31.75-1.98c-3.66,0.32-4.39,1.96-4.34,5.29
				C207.56,772.61,207.45,783.61,207.44,794.61z"/>
			<path class="st1" d="M393.13,788.99c0-13.74,0.15-27.48-0.09-41.21c-0.07-4.26,0.89-6.33,5.51-7.1c8.92-1.5,8.87-1.81,8.87,7.05
				c-0.01,10.83,0.05,21.66-0.09,32.48c-0.04,3.4,0.88,3.89,3.85,2.36c7.06-3.64,14.46-4.85,22.51-3.79
				c18.92,2.51,26.03,17.81,23.78,33.67c-2.27,16.04-13.16,25.73-29.45,26.94c-10.04,0.75-19.95-0.16-29.87-1.77
				c-4.25-0.69-5.13-2.6-5.08-6.45C393.24,817.11,393.13,803.05,393.13,788.99z M407.42,810.67c0,5.82,0.18,11.65-0.07,17.45
				c-0.15,3.33,1.1,4.44,4.29,4.82c6.65,0.79,13.22,0.6,19.77-0.68c3.92-0.77,6.62-3.1,8.2-6.83c2.91-6.85,3.83-13.94,2.96-21.32
				c-1.37-11.64-6.4-16.81-17.85-17.88c-5.05-0.47-9.95,0.76-14.82,1.94c-2.2,0.53-2.51,2.12-2.5,4.07
				C407.46,798.38,407.43,804.52,407.42,810.67z"/>
			<path class="st1" d="M547.43,778.27c15.12-0.05,20.01,4.77,20.03,18.59c0.02,8.73-0.06,17.46,0.04,26.19
				c0.09,8.15,1.88,9.74,9.76,9.07c1.08-0.09,2.33-0.75,2.84,0.83c0.38,1.2,0.04,2.3-1.17,2.85c-5.65,2.6-11.45,4.58-17.78,3.04
				c-1.2-0.29-2.74-0.97-3.26-1.93c-2.91-5.4-6.17-3.35-10.1-1.19c-6.99,3.84-14.6,5.07-22.52,3.46
				c-7.79-1.58-12.17-6.52-12.78-14.35c-0.6-7.58,3.24-13.47,10.5-16.15c6.98-2.57,14.3-2.14,21.54-2.67
				c10.36-0.76,8.49,0.36,8.59-8.9c0.1-9.06-2.51-11.52-11.61-11.2c-5.69,0.2-11.19,1.58-16.58,3.32c-2.22,0.72-3.68,0.51-4.61-1.87
				c-1.1-2.85,0.91-3.3,2.78-3.94C531.4,780.59,539.87,778.65,547.43,778.27z M526.76,821.57c-0.09,8.2,3.58,11.57,11.74,10.58
				c3.03-0.37,6.03-1.02,9.03-1.66c4.47-0.95,7.26-2.92,5.85-8.32c-0.67-2.58-0.29-5.46-0.19-8.2c0.1-2.69-0.98-3.81-3.7-3.68
				c-5.16,0.24-10.3,0.58-15.34,1.79C528.25,813.5,526.83,815.38,526.76,821.57z"/>
			<path class="st1" d="M367.83,809.29c0,8.09,0.05,16.18-0.04,24.26c-0.02,1.91,0.83,4.93-2.43,4.76
				c-3.35-0.18-8.06,2.52-9.74-2.36c-1.41-4.11-3.22-3.34-6.04-2.1c-9.39,4.14-18.93,7.48-29.52,5.53
				c-9.3-1.71-14.57-7.57-14.63-17.01c-0.08-12.62,0.08-25.24-0.1-37.85c-0.05-3.61,1.14-4.81,4.74-4.73
				c10.68,0.26,9-0.89,9.09,9.03c0.09,10.19-0.03,20.38,0.04,30.57c0.07,9.65,4.91,13.76,14.6,12.58
				c19.87-2.42,20.21-2.8,20.21-22.32c0-8.25,0.14-16.5-0.06-24.75c-0.09-3.6,0.73-5.26,4.8-5.14c10.52,0.32,8.95-0.8,9.06,9.13
				C367.88,795.71,367.83,802.5,367.83,809.29z"/>
			<path class="st1" d="M666.45,810.4c0.07-24.74,20.68-38.86,43.97-30.08c8.79,3.32,13.41,10.17,15.73,18.97
				c0.7,2.65-0.78,3.54-2.66,4.31c-4.39,1.8-9.03,2.41-13.72,2.7c-8.06,0.49-16.12,1.08-24.18,1.42c-3.57,0.15-4.56,1.66-4.46,5.14
				c0.37,12.82,6.24,18.8,18.95,18.65c7.49-0.09,14.7-1.95,21.86-3.98c1.58-0.45,3.63-1.95,4.57,0.55c0.92,2.42-1.6,2.81-3.03,3.56
				c-8.82,4.66-18.16,7.9-28.16,8.18C677.44,840.34,665.82,830.68,666.45,810.4z M689.13,802.3c5.3-0.26,10.61-0.59,15.91-0.75
				c6.64-0.21,6.82-0.36,4.4-6.45c-0.71-1.78-1.58-3.56-2.72-5.08c-3.76-5.03-9.06-5.6-14.78-4.8c-5.13,0.72-7.75,3.9-9.16,8.68
				C680.33,802.25,680.41,802.48,689.13,802.3z"/>
			<path class="st1" d="M492.77,789.35c0,14.69-0.13,29.39,0.08,44.07c0.06,4.1-1.31,5.28-5.27,5.16c-10.47-0.33-9.09,1.1-9.11-8.98
				c-0.06-27.28,0.11-54.57-0.14-81.85c-0.04-4.77,1.53-6.62,6.01-7.2c8.25-1.07,8.49-3.82,8.45,6.67
				C492.73,761.26,492.77,775.31,492.77,789.35z"/>
		</g>
	</g>
</g>
<g id="Camada_2">
</g>
</svg>
