<?xml version="1.0" encoding="utf-8"?>
<!-- Generator: Adobe Illustrator 23.0.0, SVG Export Plug-In . SVG Version: 6.00 Build 0)  -->
<svg version="1.1" id="Camada_1" xmlns="http://www.w3.org/2000/svg" xmlns:xlink="http://www.w3.org/1999/xlink" x="0px" y="0px"
	 viewBox="0 0 14400 14400" style="enable-background:new 0 0 14400 14400;" xml:space="preserve">
<style type="text/css">
	.st0{fill:#FFFFFF;}
	.st1{fill:#FDCA0B;}
</style>
<g>
	<path class="st0" d="M7225.6,7340.92c-3.94-1.1-6.76-3.59-8.72-7.11c-1.23-2.21-0.97-2.65,1.48-2.66c1.07,0,2.13,0,3.2,0
		c1.52,0.01,2.75-0.05,3.9,1.64c1.19,1.75,3.51,2.88,5.81,2c2.33-0.89,4.32-2.45,4.59-5.25c0.14-1.45,0.02-2.92,0.02-4.71
		c-2.63,3.04-5.8,4.05-9.51,3.87c-5.13-0.25-8.57-2.73-10.13-7.68c-1.31-4.14-1.46-8.41-0.67-12.64
		c1.25-6.67,5.08-10.08,11.84-10.77c2.54-0.26,5.09-0.11,7.58,0.5c5.33,1.31,8.53,5.49,8.72,11.9c0.2,6.64,0.17,13.3,0.01,19.94
		c-0.13,5.35-2.89,8.54-8.03,10.12c-0.9,0.28-1.97,0.06-2.71,0.84C7230.53,7340.92,7228.07,7340.92,7225.6,7340.92z
		 M7235.98,7312.92c0-1.76-0.05-3.3-0.58-4.79c-0.99-2.79-2.87-4.11-5.95-4.12c-2.72-0.01-4.66,1.31-5.56,3.98
		c-1.08,3.19-1.03,6.44-0.09,9.64c0.81,2.73,2.88,4.29,5.55,4.38c2.66,0.09,4.74-1.34,5.83-4.02
		C7235.86,7316.29,7236.05,7314.52,7235.98,7312.92z"/>
	<path class="st1" d="M7149.41,7190.17c3.39-1.88,6.65-3.56,9.75-5.58c7.63-4.95,12.95-11.86,16.38-20.09
		c3.87-9.26,5.47-19.06,6.32-29.08c1.31-15.5,0.45-30.99,0.63-46.48c0.08-6.98-0.03-13.95-0.01-20.93c0-1.55-0.07-3.18,0.34-4.65
		c1.08-3.83,2.03-5.25,6.05-5.27c3.48-0.03,6.21,1.08,8.62,3.26c9.56,8.64,19.86,16.27,30.87,22.96c8.49,5.16,17.3,9.66,27.02,11.93
		c10.74,2.5,21.12,1.2,30.99-3.83c0.92-0.47,1.87-0.89,3.11-1.48c-1.3,6.37-3.79,11.95-6.56,17.36
		c-7.76,15.13-18.22,28.2-30.83,39.61c-14.78,13.37-31.22,24.14-49.58,31.93c-9.15,3.88-18.58,6.89-28.38,8.77
		c-7.28,1.4-14.58,2.02-21.97,1.84C7151.24,7190.4,7150.33,7190.25,7149.41,7190.17z"/>
	<path class="st0" d="M7090.69,7233c-0.58,1.17-0.36,2.15-0.36,3.1c-0.02,13.62-0.07,27.25,0.05,40.87c0.02,2.34-0.7,2.89-2.88,2.76
		c-3.11-0.18-6.24-0.1-9.35-0.02c-1.38,0.03-1.81-0.41-1.81-1.82c0.04-20.03,0.01-40.05,0.05-60.08c0.01-4.04,3.51-7,7.49-7.53
		c5.42-0.72,8.39,1.26,11.06,6.12c7.18,13.04,15.07,25.69,22.69,38.49c0.4,0.68,0.83,1.34,1.63,2.64c0-1.63,0-2.56,0-3.5
		c0-13.79,0.03-27.58-0.04-41.37c-0.01-1.81,0.42-2.44,2.3-2.34c3.19,0.16,6.4,0.16,9.6,0.01c1.82-0.08,2.37,0.4,2.34,2.29
		c-0.12,7.71-0.05,15.43-0.05,23.15c0,13.87-0.04,27.74,0.04,41.61c0.01,1.83-0.43,2.43-2.31,2.35c-3.52-0.15-7.06-0.12-10.58-0.01
		c-1.51,0.05-2.3-0.46-3.08-1.78c-8.43-14.31-16.95-28.58-25.44-42.85C7091.64,7234.42,7091.2,7233.79,7090.69,7233z"/>
	<path class="st0" d="M7140.08,7245.96c0.13-8.39,1.33-15.46,5.24-21.76c5.85-9.42,14.45-14.27,25.5-14.84
		c6.06-0.31,11.94,0.42,17.48,3.03c7.92,3.73,13.08,9.95,15.9,18.13c3.14,9.08,3.11,18.38,0.54,27.47
		c-4.74,16.75-18.31,23.48-33.91,22.62c-11.49-0.64-20.6-5.46-26.26-15.83C7141.64,7259.42,7140.06,7252.18,7140.08,7245.96z
		 M7192.21,7245.24c0.04-3.79-0.33-7.52-1.57-11.13c-2.7-7.91-8.54-12.26-16.67-12.4c-8.77-0.15-14.84,3.75-17.71,11.64
		c-2.48,6.81-2.63,13.83-0.82,20.8c2.93,11.28,10.6,15.65,21.1,14.67c4.98-0.47,9.2-3.54,11.95-8.05
		C7191.4,7256,7192.26,7250.73,7192.21,7245.24z"/>
	<path class="st0" d="M7314.16,7279.69c-2.07-0.26-5.08,1.02-6.78-0.5c-1.54-1.38-1.7-4.29-2.47-6.52c-0.79-2.3-0.95-5.36-2.55-6.69
		c-1.65-1.38-4.72-0.38-7.17-0.4c-5.82-0.05-11.65,0.03-17.47-0.04c-1.37-0.02-2,0.36-2.4,1.74c-1.02,3.52-2.32,6.96-3.34,10.49
		c-0.45,1.55-1.19,2.01-2.76,1.96c-3.61-0.12-7.22-0.13-10.83,0.01c-1.95,0.08-2.35-0.29-1.64-2.24
		c4.86-13.31,9.6-26.67,14.39-40.01c2.68-7.46,5.34-14.92,8.05-22.37c1.21-3.32,3.14-4.68,6.65-4.73c3.28-0.05,6.57,0.09,9.84-0.06
		c1.49-0.06,1.96,0.6,2.36,1.81c3.1,9.18,6.23,18.37,9.62,27.43c4.68,12.53,8.99,25.2,13.81,37.68c0.82,2.12,0.43,2.68-1.77,2.48
		C7317.97,7279.57,7316.24,7279.69,7314.16,7279.69z M7289.12,7253.71c2.7,0,5.41-0.01,8.11,0c0.89,0,1.38-0.1,0.97-1.25
		c-2.61-7.37-4.43-15.02-7.61-22.18c-0.48-1.07,0.06-3.14-1.66-3.08c-1.82,0.07-1.29,2.21-1.69,3.37
		c-2.47,7.17-4.69,14.42-7.07,21.61c-0.42,1.25-0.18,1.57,1.08,1.55C7283.87,7253.68,7286.5,7253.72,7289.12,7253.71z"/>
	<path class="st0" d="M7238.82,7260.74c3.51-9.81,5.93-19.78,8.91-29.58c1.57-5.16,2.98-10.36,4.49-15.54
		c1.04-3.58,3.08-5.17,6.77-5.24c2.95-0.05,5.91-0.01,8.86-0.01c0.41,0,0.81,0,1.6,0c-1.53,4.54-2.97,8.9-4.46,13.24
		c-6.1,17.81-12.24,35.6-18.29,53.43c-0.67,1.98-1.52,2.91-3.77,2.7c-2.77-0.25-5.58-0.16-8.36-0.02c-1.74,0.09-2.56-0.45-3.14-2.17
		c-5.49-16.07-11.09-32.1-16.63-48.14c-2.15-6.24-4.24-12.5-6.45-19.03c5.05,0,9.93,0.02,14.82-0.02c0.95-0.01,1.04,0.65,1.18,1.25
		c1.8,7.74,4.5,15.23,6.4,22.96c1.21,4.91,2.9,9.78,4.33,14.67c0.9,3.08,1.62,6.22,2.43,9.32
		C7237.68,7259.27,7237.93,7259.94,7238.82,7260.74z"/>
	<path class="st1" d="M7175.02,7154.43c-4.93,13.86-11.8,26.02-26.44,31.48c-6.92,2.58-13.92,1.61-20.68-0.76
		c-6.74-2.36-12.83-6.05-18.56-10.3c-0.24-0.18-0.39-0.46-0.75-0.9C7131.23,7168.79,7153.15,7161.94,7175.02,7154.43z"/>
	<path class="st0" d="M7278.28,7317.03c0-2.21-0.01-4.43,0-6.65c0.05-10.29,5.94-13.79,15.09-13.19c2.65,0.18,5.09,2.27,7.38,2.03
		c2.32-0.25,4.67-1.63,7.22-1.86c1.99-0.18,3.96-0.05,5.87,0.33c5.43,1.07,8.53,4.83,8.72,10.9c0.19,6.06,0.03,12.14,0.09,18.21
		c0.01,1.21-0.39,1.63-1.55,1.52c-0.73-0.07-1.48,0.02-2.21-0.03c-3.01-0.19-4.11-1.31-4.14-4.3c-0.04-4.84-0.01-9.68-0.02-14.52
		c0-1.7,0.05-3.51-1.66-4.48c-2.39-1.35-4.94-1.3-7.26,0.09c-1.11,0.67-1.43,2.03-1.42,3.44c0.05,5.91-0.04,11.81,0.05,17.72
		c0.02,1.5-0.36,1.93-1.89,1.95c-6.04,0.06-6.04,0.12-6.04-5.91c0-4.43,0.03-8.86-0.02-13.29c-0.04-3.44-1.74-4.99-5.28-4.97
		c-3.45,0.02-5,1.48-5.03,4.88c-0.04,5.74-0.07,11.49,0.01,17.23c0.02,1.58-0.37,2.07-2.02,2.07c-5.91,0-5.91,0.06-5.91-5.75
		C7278.28,7320.64,7278.28,7318.83,7278.28,7317.03z"/>
	<path class="st0" d="M7076.84,7309.7c0-5.33-0.01-10.66,0.01-15.98c0.01-3.46,1.12-4.71,4.47-4.73c4.67-0.03,9.35-0.06,14.01,0.17
		c7.16,0.37,12.31,4.69,13.99,11.65c1.14,4.75,1.11,9.52,0.16,14.36c-1.51,7.69-8.22,12.42-15.36,12.88
		c-5.23,0.34-10.49,0.05-15.73,0.14c-1.42,0.02-1.57-0.6-1.56-1.76C7076.87,7320.85,7076.84,7315.27,7076.84,7309.7z
		 M7084.81,7308.26c0,3.68,0,7.36,0,11.05c0,0.87-0.23,1.87,1.24,1.82c2.94-0.1,5.93,0.35,8.79-0.49c2.14-0.63,4.64-1.07,5.57-3.48
		c1.77-4.54,1.96-9.26,0.99-14.03c-0.86-4.23-3.34-6.64-7.59-7.09c-2.51-0.26-5.06-0.13-7.59-0.26c-1.3-0.06-1.44,0.64-1.42,1.68
		C7084.84,7301.06,7084.81,7304.66,7084.81,7308.26z"/>
	<path class="st0" d="M7150.66,7301.45c3.72-4.35,7.94-5.09,12.73-3.54c4.83,1.56,6.74,5.34,7.6,9.94c0.61,3.26,0.68,6.5,0.07,9.77
		c-1.25,6.7-5.19,10.41-11.94,10.96c-2.1,0.17-4.23,0.2-6.36-0.27c-1.97-0.44-3.71-1.44-6.07,0.11c-2.33,1.54-3.82,0.13-3.83-2.79
		c-0.01-11.4,0-22.8-0.08-34.2c-0.01-1.78,0.26-2.58,2.33-2.52c4.74,0.14,5.56,0.83,5.54,5.61
		C7150.65,7296.64,7150.66,7298.77,7150.66,7301.45z M7150.69,7313.44c0.08,1.27-0.01,2.82,0.51,4.33c0.96,2.77,2.8,4.26,5.56,4.36
		c2.74,0.1,5.03-1.41,5.99-4.14c1.15-3.26,1.12-6.58-0.02-9.84c-0.97-2.77-3.01-4.15-5.75-4.09c-2.73,0.06-4.69,1.53-5.65,4.26
		C7150.78,7309.9,7150.69,7311.53,7150.69,7313.44z"/>
	<path class="st0" d="M7264.71,7315.17c-2.38,0-4.76-0.04-7.13,0.02c-0.93,0.02-2.52-0.44-2.62,0.45c-0.11,0.98,0.03,2.31,0.78,3.36
		c2.62,3.7,6.69,4.41,10.33,1.14c2.4-2.16,4.93-1.19,7.41-1.3c1.33-0.06,0.42,1.18,0.27,1.66c-1.7,5.49-7,8.83-13.21,8.42
		c-8.45-0.57-12.91-5.12-13.38-13.6c-0.14-2.46-0.22-4.94,0.24-7.35c1.67-8.63,7.77-11.66,15.52-10.62
		c9.62,1.29,12.07,7.75,11.91,16.74c-0.02,1.28-0.97,1.09-1.76,1.09C7270.29,7315.18,7267.5,7315.18,7264.71,7315.17z
		 M7260.83,7309.5c1.39,0,2.78-0.04,4.17,0.01c1.19,0.05,1.62-0.28,1.27-1.56c-0.72-2.62-2.44-4.26-4.9-4.43
		c-2.66-0.19-4.66,1.16-5.69,3.73c-0.61,1.53-0.63,2.49,1.47,2.27C7258.36,7309.41,7259.6,7309.51,7260.83,7309.5z"/>
	<path class="st0" d="M7211.94,7316.06c0,3.28,0.05,6.56-0.03,9.84c-0.02,0.9,0.57,2.31-0.51,2.61c-1.24,0.35-2.93,0.7-3.93-0.53
		c-0.98-1.2-1.77-0.8-2.9-0.41c-4.03,1.39-8.17,1.79-12.3,0.51c-3.59-1.11-5.94-4.27-6.09-7.78c-0.2-4.82,1.49-7.74,5.38-9.48
		c2.82-1.26,5.88-1.32,8.84-1.9c1.78-0.35,4.03-0.64,3.85-2.92c-0.17-2.18-2.38-2.39-4.23-2.46c-1.82-0.07-3.36,0.36-5,1.47
		c-2.15,1.45-4.91,0.47-7.39,0.46c-0.78,0-0.3-0.89-0.16-1.4c0.99-3.64,3.57-5.6,7.06-6.42c3.82-0.9,7.66-0.67,11.42,0.4
		c4.04,1.15,5.93,3.71,5.97,7.92c0.04,3.36,0.01,6.72,0.01,10.08C7211.93,7316.06,7211.93,7316.06,7211.94,7316.06z M7204.4,7313.1
		c-2.79,0.77-5.42,1.4-7.97,2.24c-1.93,0.64-2.89,2.13-2.51,4.21c0.37,2.04,1.64,3.36,3.73,3.47c3.1,0.16,6.49-3.06,6.73-6.26
		C7204.47,7315.62,7204.4,7314.47,7204.4,7313.1z"/>
	<path class="st1" d="M7262.41,7094.42c-0.88,0.01-2.98,0.65-3.72-0.57c-0.72-1.18,1.1-2.5,1.88-3.69
		c5.15-7.85,10-15.88,14.66-24.03c1-1.75,1.89-2.02,3.47-0.9c6.52,4.61,9.91,11.08,11.07,18.82c0.35,2.31-1.32,3.58-3.07,4.59
		c-3.36,1.93-7.07,2.97-10.79,3.88C7271.7,7093.56,7267.4,7094.19,7262.41,7094.42z"/>
	<path class="st0" d="M7139.45,7309.13c0,3.03,0.08,6.07-0.02,9.1c-0.18,5.38-2.5,8.35-7.61,9.79c-3.37,0.95-6.8,1.05-10.18,0.02
		c-5.15-1.57-7.55-4.56-7.76-10.33c-0.23-6.23-0.05-12.47-0.09-18.7c-0.01-1.04,0.29-1.57,1.38-1.42c0.08,0.01,0.16,0,0.25,0
		c6.2-0.3,6.2-0.3,6.21,5.98c0,4.68-0.04,9.35,0.03,14.03c0.05,3.4,1.7,5,4.97,5.04c3.42,0.03,5.25-1.61,5.3-5.03
		c0.08-5.41,0.03-10.83,0.02-16.24c0-1.39,0.22-2.66,1.63-3.29c1.79-0.8,3.7-0.57,5.55-0.32c0.61,0.08,0.37,0.99,0.37,1.54
		c0.02,3.28,0.01,6.56,0.01,9.84C7139.49,7309.13,7139.47,7309.13,7139.45,7309.13z"/>
	<path class="st0" d="M7174.85,7308.66c0-5.9,0.05-11.79-0.03-17.68c-0.02-1.53,0.29-2.14,1.99-2.13c4.7,0.03,5.82,1.04,5.82,5.75
		c0,10.4-0.02,20.8,0.04,31.19c0.01,1.67-0.21,2.44-2.21,2.41c-5.61-0.08-5.61,0.03-5.61-5.55
		C7174.85,7317.99,7174.85,7313.33,7174.85,7308.66z"/>
</g>
</svg>
